# xmcd CD database file
#
# Track frame offsets:
#	150
#	16493
#	39283
#	59917
#	83527
#	110986
#	118322
#	148907
#	190793
#	217262
#	253144
#	272845
#
# Disc length: 4059 seconds
#
# Revision: 0
# Processed by: cddbd v1.4b42PL0 Copyright (c) Steve Scherf et al.
# Submitted via: CDex 1.40Beta5
#
DISCID=c20fd90c
DTITLE=Eric Clapton - Reptile at Ahoy 2001 [CD1)
DYEAR=2001
DGENRE=Blues
TTITLE0=Key To The Highway
TTITLE1=Reptile
TTITLE2=Tears In Heaven
TTITLE3=Bell Bottom Blues
TTITLE4=Change The World
TTITLE5=Guitar Interlude
TTITLE6=My Father's Eyes
TTITLE7=River Of Tears
TTITLE8=Going Down Slow
TTITLE9=She's Gone
TTITLE10=Got You On My Mind
TTITLE11=Don't Let Me Be Lonely Tonight
EXTD=YEAR: 2001 ID3G:   0
EXTT0=
EXTT1=
EXTT2=
EXTT3=
EXTT4=
EXTT5=
EXTT6=
EXTT7=
EXTT8=
EXTT9=
EXTT10=
EXTT11=
PLAYORDER=
